<?xml version="1.0" encoding="UTF-8" standalone="no"?>
<!-- Created with Inkscape (http://www.inkscape.org/) -->

<svg
   xmlns:dc="http://purl.org/dc/elements/1.1/"
   xmlns:cc="http://creativecommons.org/ns#"
   xmlns:rdf="http://www.w3.org/1999/02/22-rdf-syntax-ns#"
   xmlns:svg="http://www.w3.org/2000/svg"
   xmlns="http://www.w3.org/2000/svg"
   xmlns:sodipodi="http://sodipodi.sourceforge.net/DTD/sodipodi-0.dtd"
   xmlns:inkscape="http://www.inkscape.org/namespaces/inkscape"
   version="1.1"
   id="svg2"
   xml:space="preserve"
   width="52"
   height="52"
   viewBox="0 0 52 52"
   sodipodi:docname="uavcan_logo_small.svg"
   inkscape:version="0.92.4 (5da689c313, 2019-01-14)"><metadata
     id="metadata8"><rdf:RDF><cc:Work
         rdf:about=""><dc:format>image/svg+xml</dc:format><dc:type
           rdf:resource="http://purl.org/dc/dcmitype/StillImage" /><dc:title></dc:title></cc:Work></rdf:RDF></metadata><defs
     id="defs6" /><sodipodi:namedview
     pagecolor="#ffffff"
     bordercolor="#666666"
     borderopacity="1"
     objecttolerance="10"
     gridtolerance="10"
     guidetolerance="10"
     inkscape:pageopacity="0"
     inkscape:pageshadow="2"
     inkscape:window-width="1920"
     inkscape:window-height="1029"
     id="namedview4"
     showgrid="false"
     inkscape:zoom="9.2447664"
     inkscape:cx="39.112289"
     inkscape:cy="13.747938"
     inkscape:window-x="0"
     inkscape:window-y="27"
     inkscape:window-maximized="1"
     inkscape:current-layer="g12" /><g
     id="g10"
     inkscape:groupmode="layer"
     inkscape:label="ink_ext_XXXXXX"
     transform="matrix(1.3333333,0,0,-1.3333333,0,52)"><g
       id="g12"
       transform="scale(0.1)"><path
         d="m 241.23123,362.33925 h 61.61432 V 187.89858 c 0,-23.98058 -5.43417,-41.42019 -16.29895,-52.25021 -10.81844,-10.82557 -28.23043,-12.80301 -52.21101,-12.80301 h -78.67163 c -23.9804,0 -41.39238,1.97744 -52.21144,12.80301 C 92.588271,146.47839 87.154455,163.918 87.154455,187.89858 V 362.33925 H 148.76841 V 187.89858 c 0,-13.75029 6.8608,-20.60405 20.61109,-20.60405 h 51.24056 c 13.75029,0 20.61117,6.85376 20.61117,20.60405 z"
         style="fill:#1700b3;fill-opacity:1;fill-rule:nonzero;stroke:none;stroke-width:1"
         id="path14"
         inkscape:connector-curvature="0" /><path
         d="M 60.305091,48.104547 81.675076,69.474532 H 329.69491 L 308.32538,48.104547 Z"
         style="fill:#1700b3;fill-opacity:1;fill-rule:evenodd;stroke:none;stroke-width:1"
         id="path26"
         inkscape:connector-curvature="0"
         sodipodi:nodetypes="ccccc" /><path
         d="M 195,122.84179 V 58.794753"
         style="fill:none;stroke:#1700b3;stroke-width:16;stroke-linecap:butt;stroke-linejoin:miter;stroke-miterlimit:10;stroke-dasharray:none;stroke-opacity:1"
         id="path28"
         inkscape:connector-curvature="0" /><path
         d="m 223.50579,58.787802 c 0,-15.737712 -12.76826,-28.506056 -28.50579,-28.506056 -15.73753,0 -28.50579,12.768344 -28.50579,28.506056 0,15.775942 12.76826,28.509532 28.50579,28.509532 15.73753,0 28.50579,-12.73359 28.50579,-28.509532 z"
         style="fill:#1700b3;fill-opacity:1;fill-rule:evenodd;stroke:none;stroke-width:1"
         id="path40"
         inkscape:connector-curvature="0" /></g></g></svg>